<svg width="32" height="32" viewBox="0 0 32 32" fill="none" xmlns="http://www.w3.org/2000/svg">
<path fill-rule="evenodd" clip-rule="evenodd" d="M30 16C30 14.1677 29.6354 12.3354 28.9343 10.6425C28.2332 8.9496 27.1952 7.39616 25.8994 6.1006C24.6038 4.80476 23.0504 3.7668 21.3575 3.06568C19.6646 2.36456 17.8323 2 16 2C14.1677 2 12.3354 2.36456 10.6425 3.06568C8.9496 3.7668 7.39616 4.80476 6.1006 6.1006C4.80476 7.39616 3.7668 8.9496 3.06568 10.6425C2.36456 12.3354 2 14.1677 2 16C2 17.8323 2.36456 19.6646 3.06568 21.3575C3.7668 23.0504 4.80476 24.6038 6.1006 25.8994C7.39616 27.1952 8.9496 28.2332 10.6425 28.9343C12.3354 29.6354 14.1677 30 16 30C17.8323 30 19.6646 29.6354 21.3575 28.9343C23.0504 28.2332 24.6038 27.1952 25.8994 25.8994C27.1952 24.6038 28.2332 23.0504 28.9343 21.3575C29.6354 19.6646 30 17.8323 30 16Z" fill="url(#paint0_radial)"/>
<path fill-rule="evenodd" clip-rule="evenodd" d="M14.2856 14.9079C14.1186 14.9605 13.9726 15.0769 13.8638 15.2144C13.755 15.3521 13.6835 15.5112 13.6571 15.6927C13.6304 15.8744 13.6488 16.0787 13.7542 16.2002C13.8598 16.3218 14.0524 16.361 14.2342 16.3681C14.4159 16.3749 14.5866 16.3499 14.7582 16.3084C14.9297 16.267 15.1021 16.209 15.2399 16.0983C15.3776 15.9875 15.4807 15.8236 15.481 15.6569C15.4813 15.4899 15.3788 15.3198 15.2532 15.1897C15.1274 15.0593 14.9783 14.969 14.8096 14.9179C14.6409 14.867 14.4526 14.8557 14.2856 14.9079Z" fill="#FF007A"/>
<path fill-rule="evenodd" clip-rule="evenodd" d="M23.6001 15.2772C23.2087 14.6012 22.7364 14.3703 22.1908 14.2681C21.6452 14.1658 21.026 14.1922 20.31 14.1153C19.594 14.0383 18.7815 13.8582 18.1143 13.3856C17.4469 12.9133 16.9251 12.1487 16.2725 11.3117C15.6195 10.475 14.8362 9.56616 13.1233 9.30657C14.5857 9.14298 15.651 9.89562 16.7564 11.1567C17.7215 11.0024 18.748 10.9814 19.7008 11.2279C20.6537 11.4745 21.533 11.9888 22.2405 12.6969C22.948 13.4049 23.4836 14.307 23.6001 15.2772Z" fill="#FF007A"/>
<path fill-rule="evenodd" clip-rule="evenodd" d="M18.0932 13.9412C17.9673 15.1812 18.5115 15.8787 19.2999 16.4118C20.0884 16.9449 21.1208 17.3136 21.8737 17.62C22.6266 17.9265 23.0995 18.1704 23.5199 18.513C23.9402 18.8555 24.3077 19.2963 24.2535 20.0893C24.8513 19.1222 24.8777 18.0398 24.5881 17.2088C24.2984 16.3775 23.6928 15.7978 22.9919 15.4433C22.2909 15.0892 21.4945 14.9605 20.588 14.8233C19.6814 14.6861 18.6649 14.5404 18.0932 13.9412Z" fill="#FF007A"/>
<path fill-rule="evenodd" clip-rule="evenodd" d="M13.094 9.78967C13.9523 9.95383 14.2389 10.2719 14.4195 10.5849C14.6002 10.8976 14.6746 11.2046 14.7362 11.4955C14.7978 11.7863 14.8464 12.061 14.924 12.2921C15.0015 12.5233 15.108 12.7111 15.2023 12.8582C15.2963 13.0053 15.3781 13.1121 15.411 13.1879C15.444 13.2635 15.4278 13.3084 15.3849 13.3356C15.3423 13.3629 15.2727 13.3728 15.1659 13.3666C15.0591 13.3603 14.9154 13.3379 14.6607 13.2055C14.4059 13.0729 14.0404 12.8304 13.6808 12.2745C13.3212 11.7184 12.9676 10.8491 13.094 9.78967Z" fill="#FF007A"/>
<path fill-rule="evenodd" clip-rule="evenodd" d="M20.3689 17.4987C20.1226 18.2108 20.2567 18.8708 20.5009 19.4389C20.7452 20.0066 21.0994 20.4823 21.4143 20.9277C21.7296 21.373 22.0057 21.7877 22.2363 22.316C22.4669 22.8439 22.6521 23.485 22.1394 24.5103C23.28 23.961 23.6987 23.1887 23.9091 22.5443C24.1199 21.8996 24.1227 21.3827 24.0503 20.9277C23.9781 20.4727 23.8305 20.0796 23.5521 19.6993C23.2738 19.319 22.8645 18.9512 22.3453 18.6277C21.8264 18.3042 21.1976 18.0247 20.3689 17.4987Z" fill="#FF007A"/>
<path fill-rule="evenodd" clip-rule="evenodd" d="M14.7513 20.9103C15.0203 20.7144 15.1941 20.6235 15.3793 20.54C15.5645 20.4565 15.761 20.3804 16.0073 20.3105C16.2532 20.2406 16.5486 20.1773 16.8542 20.1233C17.1598 20.0694 17.4756 20.0248 17.7523 19.966C18.0292 19.9072 18.2672 19.8345 18.4788 19.7331C18.6907 19.6317 18.8761 19.5022 19.0326 19.3406C19.1891 19.179 19.3163 18.9856 19.403 18.7879C19.4893 18.5899 19.535 18.3883 19.5495 18.1602C19.5637 17.9321 19.5467 17.6779 19.3385 16.9972C19.683 17.3746 19.8108 17.6822 19.8707 17.9972C19.931 18.3119 19.9236 18.6342 19.8568 18.9046C19.7904 19.1747 19.6645 19.3928 19.4862 19.6121C19.3078 19.8314 19.0769 20.0515 18.7793 20.2026C18.4816 20.3534 18.1175 20.4352 17.767 20.4829C17.4168 20.5306 17.0806 20.5448 16.6457 20.5678C16.2109 20.5908 15.6772 20.6232 14.7513 20.9103Z" fill="#FF007A"/>
<path fill-rule="evenodd" clip-rule="evenodd" d="M14.9982 15.4657C15.0553 15.3595 15.0166 15.2025 14.9241 15.1116C14.8317 15.0204 14.6858 14.9954 14.5372 15.0105C14.3884 15.0255 14.2373 15.0806 14.1808 15.1854C14.1243 15.2899 14.1626 15.4439 14.2541 15.535C14.3458 15.6265 14.4906 15.6552 14.6395 15.6418C14.7883 15.6282 14.9411 15.5722 14.9982 15.4657Z" fill="#FF007A"/>
<path fill-rule="evenodd" clip-rule="evenodd" d="M9.4783 23.3614C10.0259 23.2799 10.4769 23.1424 10.8464 22.9964C11.2159 22.8505 11.5036 22.696 11.7541 22.5113C12.0049 22.3267 12.2179 22.112 12.3295 21.8669C12.4412 21.6218 12.4514 21.3463 12.4111 21.1265C12.3707 20.9064 12.2801 20.7419 12.087 20.5607C11.8939 20.3792 11.5985 20.1813 11.3324 19.9663C11.0662 19.7516 10.8297 19.5198 10.7047 19.2537C10.5794 18.9875 10.5661 18.6871 10.6516 18.3656C10.7373 18.044 10.922 17.7015 11.0722 17.3743C11.2224 17.0469 11.3383 16.7347 11.3997 16.3814C11.4607 16.0278 11.4676 15.6333 11.528 15.3697C11.5885 15.1062 11.7027 14.9735 11.868 14.8906C12.0333 14.8074 12.25 14.7739 12.4951 14.7279C12.7402 14.6819 13.014 14.6234 13.2472 14.4936C13.4801 14.3638 13.6721 14.1627 13.7814 13.9482C13.8908 13.7341 13.9175 13.5066 13.9206 13.3671C13.924 13.228 13.9038 13.1769 13.8274 13.0789C13.7508 12.9812 13.6181 12.8363 13.2978 12.4856C12.9774 12.1351 12.4693 11.579 11.8101 10.8681C11.1506 10.1572 10.34 9.29151 9.67285 8.57608C9.00541 7.86064 8.4814 7.29545 8.18773 6.99212C7.89434 6.68879 7.83129 6.64675 7.81794 6.6584C7.80459 6.66976 7.84066 6.73451 8.09486 7.07192C8.34905 7.40934 8.82165 8.01969 9.43428 8.80386C10.0469 9.58774 10.7998 10.5457 11.4073 11.3148C12.0149 12.084 12.4772 12.6645 12.7485 13.0059C13.02 13.3473 13.1004 13.4501 13.1208 13.5452C13.1415 13.6404 13.1021 13.7281 13.0365 13.792C12.9708 13.8559 12.8785 13.8957 12.7658 13.9309C12.653 13.9659 12.5195 13.9962 12.3934 13.9872C12.2673 13.9784 12.1483 13.9301 12.0444 13.842C11.9407 13.754 11.8518 13.6262 11.6198 13.2868C11.3875 12.9477 11.012 12.3969 10.6482 11.8812C10.2841 11.3654 9.93187 10.8846 9.72227 10.6079C9.51267 10.3313 9.44592 10.2589 9.43002 10.2668C9.41411 10.2751 9.44933 10.3637 9.61434 10.6721C9.77907 10.9803 10.0739 11.5085 10.3789 12.0712C10.6839 12.6341 10.9995 13.2317 11.1673 13.5566C11.3352 13.8815 11.3551 13.9335 11.3389 14.0053C11.323 14.0769 11.2707 14.1686 11.1886 14.2661C11.1063 14.3638 10.9935 14.4677 10.8958 14.6358C10.7981 14.8037 10.7152 15.0357 10.6561 15.3377C10.597 15.6396 10.5618 16.0113 10.4846 16.3453C10.4076 16.6793 10.2889 16.9753 10.0994 17.3022C9.90972 17.6291 9.64956 17.9867 9.37975 18.3264C9.10965 18.6658 8.82989 18.9875 8.63875 19.3389C8.44789 19.6902 8.34536 20.0714 8.35132 20.4784C8.357 20.8853 8.47118 21.3185 8.62796 21.6814C8.78445 22.0444 8.98354 22.3372 9.15083 22.6054C9.31783 22.8732 9.45274 23.1166 9.4783 23.3614Z" fill="#FF007A"/>
<path fill-rule="evenodd" clip-rule="evenodd" d="M9.7987 20.8385C9.81432 20.8041 9.82625 20.7681 9.83477 20.7308C9.87197 20.5692 9.8413 20.394 9.74416 20.256C9.64987 20.1225 9.49309 20.0239 9.33461 20.0699C9.21788 20.1037 9.10002 20.2156 9.11024 20.3145C9.12018 20.4122 9.25566 20.4971 9.26957 20.603C9.28377 20.7127 9.16875 20.8447 9.19204 20.9362C9.21618 21.0311 9.38943 21.0825 9.5215 21.0631C9.65498 21.0438 9.74672 20.9524 9.7987 20.8385Z" fill="#FF007A"/>
<path fill-rule="evenodd" clip-rule="evenodd" d="M11.9529 23.0899C13.4528 21.7806 14.617 21.5167 15.5309 21.5161C16.4449 21.5153 17.1089 21.7777 17.5372 22.1569C17.9655 22.536 18.1581 23.0319 18.2722 23.5801C18.3864 24.1282 18.4219 24.7289 18.5912 25.1246C18.7605 25.5199 19.0635 25.7102 19.4222 25.7653C19.7807 25.8207 20.1953 25.7409 20.7665 25.5125C20.3476 25.8477 20.0681 25.9809 19.769 26.0459C19.4702 26.1112 19.1518 26.1084 18.8545 25.986C18.5574 25.8633 18.281 25.6205 18.0547 25.2788C17.8286 24.9371 17.6522 24.4963 17.4614 24.0979C17.2702 23.6991 17.0646 23.3424 16.7252 23.1018C16.3855 22.8612 15.9121 22.7368 15.5389 22.8223C15.1654 22.9081 14.8919 23.2038 14.8263 23.5139C14.7604 23.8243 14.9021 24.149 15.1307 24.3404C15.3597 24.5315 15.6752 24.5892 15.9044 24.5372C16.1336 24.485 16.2762 24.3228 16.3509 24.1691C16.4253 24.0158 16.4315 23.8709 16.4548 23.7786C16.4781 23.6866 16.5184 23.6471 16.5548 23.646C16.5912 23.6451 16.6232 23.6826 16.6463 23.7664C16.669 23.8502 16.6826 23.9803 16.6644 24.1177C16.6463 24.2555 16.5965 24.4009 16.5017 24.5381C16.4071 24.6753 16.2674 24.8042 16.0652 24.8806C15.8632 24.9573 15.5985 24.9814 15.3491 24.9229C15.0998 24.8644 14.8655 24.7235 14.6391 24.5193C14.4127 24.3151 14.1946 24.0479 13.9444 23.8263C13.6942 23.6048 13.4122 23.429 13.064 23.3128C12.716 23.1967 12.3019 23.1407 11.9529 23.0899Z" fill="#FF007A"/>
<path fill-rule="evenodd" clip-rule="evenodd" d="M26.2846 28.2568L25.0628 26.8008C19.3418 31.6011 10.8698 31.1076 5.74472 25.6756C0.6196 20.2433 0.6196 11.7569 5.74472 6.3246C10.8698 0.892603 19.3418 0.399163 25.0628 5.19948L26.2846 3.74348C19.7924 -1.7042 10.178 -1.14452 4.362 5.02028C-1.454 11.1848 -1.454 20.8155 4.362 26.98C10.178 33.1448 19.7924 33.7044 26.2846 28.2568Z" fill="url(#paint1_linear)"/>
<path fill-rule="evenodd" clip-rule="evenodd" d="M26.2845 28.2568L25.0627 26.8007C28.2554 24.1217 30.0992 20.1678 30.0992 16.0001C30.0992 11.8324 28.2554 7.87851 25.0627 5.19947L26.2845 3.74347C29.9075 6.78347 32 11.2705 32 16.0001C32 20.7297 29.9075 25.2168 26.2845 28.2568Z" fill="#EDF0F2"/>
<defs>
<radialGradient id="paint0_radial" cx="0" cy="0" r="1" gradientUnits="userSpaceOnUse" gradientTransform="translate(41.4157 41.2265) rotate(-131.081) scale(46.9506)">
<stop stop-color="#FF64A5"/>
<stop offset="1" stop-color="#FFF8FC"/>
</radialGradient>
<linearGradient id="paint1_linear" x1="3.37603" y1="0" x2="3.37603" y2="32.0002" gradientUnits="userSpaceOnUse">
<stop stop-color="#27D3A2"/>
<stop offset="1" stop-color="#9388FD"/>
</linearGradient>
</defs>
</svg>
